<svg width="22" height="22" viewBox="0 0 22 22" fill="none" xmlns="http://www.w3.org/2000/svg">
<path fill-rule="evenodd" clip-rule="evenodd" d="M6.41663 3.66668C6.17351 3.66668 5.94035 3.76325 5.76844 3.93516C5.59654 4.10707 5.49996 4.34023 5.49996 4.58334V17.6704L10.5452 14.7875C10.827 14.6264 11.1729 14.6264 11.4548 14.7875L16.5 17.6704V4.58334C16.5 4.34023 16.4034 4.10707 16.2315 3.93516C16.0596 3.76325 15.8264 3.66668 15.5833 3.66668H6.41663ZM4.47208 2.6388C4.98781 2.12307 5.68728 1.83334 6.41663 1.83334H15.5833C16.3126 1.83334 17.0121 2.12307 17.5278 2.6388C18.0436 3.15452 18.3333 3.854 18.3333 4.58334V19.25C18.3333 19.5768 18.1593 19.8788 17.8767 20.0428C17.5941 20.2069 17.2455 20.208 16.9618 20.0459L11 16.6391L5.03809 20.0459C4.75438 20.208 4.40581 20.2069 4.12319 20.0428C3.84057 19.8788 3.66663 19.5768 3.66663 19.25V4.58334C3.66663 3.854 3.95636 3.15452 4.47208 2.6388Z" fill="#674DEE"/>
<path fill-rule="evenodd" clip-rule="evenodd" d="M11 5.5C11.5063 5.5 11.9167 5.91041 11.9167 6.41667V11.9167C11.9167 12.4229 11.5063 12.8333 11 12.8333C10.4938 12.8333 10.0834 12.4229 10.0834 11.9167V6.41667C10.0834 5.91041 10.4938 5.5 11 5.5Z" fill="#674DEE"/>
<path fill-rule="evenodd" clip-rule="evenodd" d="M7.33337 9.16667C7.33337 8.66041 7.74378 8.25 8.25004 8.25H13.75C14.2563 8.25 14.6667 8.66041 14.6667 9.16667C14.6667 9.67293 14.2563 10.0833 13.75 10.0833H8.25004C7.74378 10.0833 7.33337 9.67293 7.33337 9.16667Z" fill="#674DEE"/>
</svg>
