<svg width="36" height="36" viewBox="0 0 36 36" fill="none" xmlns="http://www.w3.org/2000/svg">
<path fill-rule="evenodd" clip-rule="evenodd" d="M4.5 18C4.5 17.1716 5.17157 16.5 6 16.5H30C30.8284 16.5 31.5 17.1716 31.5 18C31.5 18.8284 30.8284 19.5 30 19.5H6C5.17157 19.5 4.5 18.8284 4.5 18Z" fill="#674DEE"/>
<path fill-rule="evenodd" clip-rule="evenodd" d="M4.5 9C4.5 8.17157 5.17157 7.5 6 7.5H30C30.8284 7.5 31.5 8.17157 31.5 9C31.5 9.82843 30.8284 10.5 30 10.5H6C5.17157 10.5 4.5 9.82843 4.5 9Z" fill="#674DEE"/>
<path fill-rule="evenodd" clip-rule="evenodd" d="M4.5 27C4.5 26.1716 5.17157 25.5 6 25.5H30C30.8284 25.5 31.5 26.1716 31.5 27C31.5 27.8284 30.8284 28.5 30 28.5H6C5.17157 28.5 4.5 27.8284 4.5 27Z" fill="#674DEE"/>
</svg>
