<svg width="20" height="20" viewBox="0 0 20 20" fill="none" xmlns="http://www.w3.org/2000/svg">
<path fill-rule="evenodd" clip-rule="evenodd" d="M10 1.66667C8.23191 1.66667 6.53622 2.36905 5.28597 3.61929C4.03573 4.86953 3.33335 6.56522 3.33335 8.33333C3.33335 10.915 5.01313 13.4202 6.85498 15.3644C7.75886 16.3185 8.66558 17.0996 9.34725 17.6424C9.60095 17.8444 9.82254 18.0127 10 18.1438C10.1775 18.0127 10.3991 17.8444 10.6528 17.6424C11.3345 17.0996 12.2412 16.3185 13.1451 15.3644C14.9869 13.4202 16.6667 10.915 16.6667 8.33333C16.6667 6.56522 15.9643 4.86953 14.7141 3.61929C13.4638 2.36905 11.7681 1.66667 10 1.66667ZM10 19.1667C9.53777 19.86 9.53756 19.8599 9.53732 19.8597L9.53494 19.8582L9.52938 19.8544L9.51029 19.8415C9.49406 19.8305 9.47092 19.8147 9.44132 19.7942C9.38213 19.7532 9.29707 19.6934 9.18985 19.616C8.97548 19.4612 8.67199 19.2352 8.30904 18.9462C7.58446 18.3692 6.61618 17.5357 5.64506 16.5106C3.73691 14.4965 1.66669 11.585 1.66669 8.33333C1.66669 6.1232 2.54466 4.00358 4.10746 2.44078C5.67027 0.877974 7.78988 0 10 0C12.2102 0 14.3298 0.877974 15.8926 2.44078C17.4554 4.00358 18.3334 6.1232 18.3334 8.33333C18.3334 11.585 16.2631 14.4965 14.355 16.5106C13.3839 17.5357 12.4156 18.3692 11.691 18.9462C11.3281 19.2352 11.0246 19.4612 10.8102 19.616C10.703 19.6934 10.6179 19.7532 10.5587 19.7942C10.5291 19.8147 10.506 19.8305 10.4898 19.8415L10.4707 19.8544L10.4651 19.8582L10.4633 19.8593C10.4631 19.8595 10.4623 19.86 10 19.1667ZM10 19.1667L10.4623 19.86C10.1824 20.0467 9.81724 20.0464 9.53732 19.8597L10 19.1667Z" fill="#674DEE"/>
<path fill-rule="evenodd" clip-rule="evenodd" d="M10 6.66667C9.07955 6.66667 8.33335 7.41286 8.33335 8.33333C8.33335 9.25381 9.07955 10 10 10C10.9205 10 11.6667 9.25381 11.6667 8.33333C11.6667 7.41286 10.9205 6.66667 10 6.66667ZM6.66669 8.33333C6.66669 6.49238 8.15907 5 10 5C11.841 5 13.3334 6.49238 13.3334 8.33333C13.3334 10.1743 11.841 11.6667 10 11.6667C8.15907 11.6667 6.66669 10.1743 6.66669 8.33333Z" fill="#674DEE"/>
</svg>
